<mxfile host="app.diagrams.net" agent="Mozilla/5.0 (Macintosh; Intel Mac OS X 10_15_7) AppleWebKit/605.1.15 (KHTML, like Gecko) Version/18.1 Safari/605.1.15" scale="1" border="0" version="26.0.11">
  <diagram id="JIO4U5yVURzNJD8ckPtT" name="Page-1">
    <mxGraphModel dx="838" dy="593" grid="1" gridSize="10" guides="1" tooltips="1" connect="1" arrows="1" fold="1" page="1" pageScale="1" pageWidth="850" pageHeight="1100" math="0" shadow="0">
      <root>
        <mxCell id="0" />
        <mxCell id="1" parent="0" />
        <mxCell id="gEhuPBqyh7GZob9WyFoS-10" style="edgeStyle=orthogonalEdgeStyle;rounded=0;orthogonalLoop=1;jettySize=auto;html=1;exitX=1;exitY=0.5;exitDx=0;exitDy=0;entryX=0;entryY=0.5;entryDx=0;entryDy=0;" edge="1" parent="1" source="gEhuPBqyh7GZob9WyFoS-11" target="gEhuPBqyh7GZob9WyFoS-13">
          <mxGeometry relative="1" as="geometry" />
        </mxCell>
        <mxCell id="gEhuPBqyh7GZob9WyFoS-11" value="Video" style="rounded=1;whiteSpace=wrap;html=1;" vertex="1" parent="1">
          <mxGeometry x="80" y="40" width="120" height="80" as="geometry" />
        </mxCell>
        <mxCell id="gEhuPBqyh7GZob9WyFoS-12" style="edgeStyle=orthogonalEdgeStyle;rounded=0;orthogonalLoop=1;jettySize=auto;html=1;exitX=1;exitY=0.5;exitDx=0;exitDy=0;entryX=0;entryY=0.5;entryDx=0;entryDy=0;" edge="1" parent="1" source="gEhuPBqyh7GZob9WyFoS-13" target="gEhuPBqyh7GZob9WyFoS-15">
          <mxGeometry relative="1" as="geometry" />
        </mxCell>
        <mxCell id="gEhuPBqyh7GZob9WyFoS-13" value="Preprocess" style="rounded=1;whiteSpace=wrap;html=1;" vertex="1" parent="1">
          <mxGeometry x="280" y="40" width="120" height="80" as="geometry" />
        </mxCell>
        <mxCell id="gEhuPBqyh7GZob9WyFoS-14" style="edgeStyle=orthogonalEdgeStyle;rounded=0;orthogonalLoop=1;jettySize=auto;html=1;exitX=1;exitY=0.5;exitDx=0;exitDy=0;entryX=0;entryY=0.5;entryDx=0;entryDy=0;" edge="1" parent="1" source="gEhuPBqyh7GZob9WyFoS-15" target="gEhuPBqyh7GZob9WyFoS-16">
          <mxGeometry relative="1" as="geometry" />
        </mxCell>
        <mxCell id="gEhuPBqyh7GZob9WyFoS-15" value="Video encoder" style="rounded=1;whiteSpace=wrap;html=1;" vertex="1" parent="1">
          <mxGeometry x="480" y="40" width="120" height="80" as="geometry" />
        </mxCell>
        <mxCell id="gEhuPBqyh7GZob9WyFoS-16" value="Video embedding" style="rounded=1;whiteSpace=wrap;html=1;" vertex="1" parent="1">
          <mxGeometry x="680" y="40" width="120" height="80" as="geometry" />
        </mxCell>
        <mxCell id="gEhuPBqyh7GZob9WyFoS-17" style="edgeStyle=orthogonalEdgeStyle;rounded=0;orthogonalLoop=1;jettySize=auto;html=1;exitX=1;exitY=0.5;exitDx=0;exitDy=0;entryX=0;entryY=0.5;entryDx=0;entryDy=0;" edge="1" parent="1" source="gEhuPBqyh7GZob9WyFoS-18" target="gEhuPBqyh7GZob9WyFoS-20">
          <mxGeometry relative="1" as="geometry" />
        </mxCell>
        <mxCell id="gEhuPBqyh7GZob9WyFoS-18" value="Text" style="rounded=1;whiteSpace=wrap;html=1;" vertex="1" parent="1">
          <mxGeometry x="80" y="200" width="120" height="80" as="geometry" />
        </mxCell>
        <mxCell id="gEhuPBqyh7GZob9WyFoS-19" style="edgeStyle=orthogonalEdgeStyle;rounded=0;orthogonalLoop=1;jettySize=auto;html=1;exitX=1;exitY=0.5;exitDx=0;exitDy=0;entryX=0;entryY=0.5;entryDx=0;entryDy=0;" edge="1" parent="1" source="gEhuPBqyh7GZob9WyFoS-20" target="gEhuPBqyh7GZob9WyFoS-22">
          <mxGeometry relative="1" as="geometry" />
        </mxCell>
        <mxCell id="gEhuPBqyh7GZob9WyFoS-20" value="Preprocess" style="rounded=1;whiteSpace=wrap;html=1;" vertex="1" parent="1">
          <mxGeometry x="280" y="200" width="120" height="80" as="geometry" />
        </mxCell>
        <mxCell id="gEhuPBqyh7GZob9WyFoS-21" style="edgeStyle=orthogonalEdgeStyle;rounded=0;orthogonalLoop=1;jettySize=auto;html=1;exitX=1;exitY=0.5;exitDx=0;exitDy=0;entryX=0;entryY=0.5;entryDx=0;entryDy=0;" edge="1" parent="1" source="gEhuPBqyh7GZob9WyFoS-22" target="gEhuPBqyh7GZob9WyFoS-23">
          <mxGeometry relative="1" as="geometry" />
        </mxCell>
        <mxCell id="gEhuPBqyh7GZob9WyFoS-22" value="Text encoder" style="rounded=1;whiteSpace=wrap;html=1;" vertex="1" parent="1">
          <mxGeometry x="480" y="200" width="120" height="80" as="geometry" />
        </mxCell>
        <mxCell id="gEhuPBqyh7GZob9WyFoS-23" value="Text embedding" style="rounded=1;whiteSpace=wrap;html=1;" vertex="1" parent="1">
          <mxGeometry x="680" y="200" width="120" height="80" as="geometry" />
        </mxCell>
        <mxCell id="gEhuPBqyh7GZob9WyFoS-24" value="User feature" style="rounded=1;whiteSpace=wrap;html=1;" vertex="1" parent="1">
          <mxGeometry x="80" y="360" width="120" height="80" as="geometry" />
        </mxCell>
        <mxCell id="gEhuPBqyh7GZob9WyFoS-25" value="" style="swimlane;startSize=0;" vertex="1" parent="1">
          <mxGeometry x="40" width="800" height="480" as="geometry" />
        </mxCell>
        <mxCell id="gEhuPBqyh7GZob9WyFoS-26" value="Dataprep pipeline" style="text;html=1;align=center;verticalAlign=middle;whiteSpace=wrap;rounded=0;" vertex="1" parent="gEhuPBqyh7GZob9WyFoS-25">
          <mxGeometry width="200" height="40" as="geometry" />
        </mxCell>
      </root>
    </mxGraphModel>
  </diagram>
</mxfile>
